<svg viewBox="0 0 20 20">
    <path
        d="M4.16667 15V15.8334V4.16673V15ZM4.4231 17.0834C4.00751 17.0834 3.65254 16.9362 3.35821 16.6419C3.06386 16.3475 2.91669 15.9926 2.91669 15.577V4.42317C2.91669 4.00757 3.06386 3.6526 3.35821 3.35827C3.65254 3.06392 4.00751 2.91675 4.4231 2.91675H15.5769C15.9925 2.91675 16.3475 3.06392 16.6418 3.35827C16.9361 3.6526 17.0833 4.00757 17.0833 4.42317V6.69079H15.8333V4.42317C15.8333 4.34837 15.8093 4.28694 15.7612 4.23885C15.7131 4.19077 15.6517 4.16673 15.5769 4.16673H4.4231C4.34831 4.16673 4.28687 4.19077 4.23879 4.23885C4.19071 4.28694 4.16667 4.34837 4.16667 4.42317V15.577C4.16667 15.6517 4.19071 15.7132 4.23879 15.7613C4.28687 15.8094 4.34831 15.8334 4.4231 15.8334H15.5769C15.6517 15.8334 15.7131 15.8094 15.7612 15.7613C15.8093 15.7132 15.8333 15.6517 15.8333 15.577V13.3093H17.0833V15.577C17.0833 15.9926 16.9361 16.3475 16.6418 16.6419C16.3475 16.9362 15.9925 17.0834 15.5769 17.0834H4.4231ZM11.0898 13.75C10.6742 13.75 10.3192 13.6029 10.0249 13.3085C9.73053 13.0142 9.58335 12.6592 9.58335 12.2436V7.7565C9.58335 7.3409 9.73053 6.98594 10.0249 6.6916C10.3192 6.39725 10.6742 6.25008 11.0898 6.25008H16.4102C16.8258 6.25008 17.1808 6.39725 17.4751 6.6916C17.7695 6.98594 17.9166 7.3409 17.9166 7.7565V12.2436C17.9166 12.6592 17.7695 13.0142 17.4751 13.3085C17.1808 13.6029 16.8258 13.75 16.4102 13.75H11.0898ZM16.4102 12.5001C16.485 12.5001 16.5465 12.476 16.5945 12.4279C16.6426 12.3799 16.6667 12.3184 16.6667 12.2436V7.7565C16.6667 7.68171 16.6426 7.62027 16.5945 7.57219C16.5465 7.5241 16.485 7.50006 16.4102 7.50006H11.0898C11.015 7.50006 10.9535 7.5241 10.9055 7.57219C10.8574 7.62027 10.8333 7.68171 10.8333 7.7565V12.2436C10.8333 12.3184 10.8574 12.3799 10.9055 12.4279C10.9535 12.476 11.015 12.5001 11.0898 12.5001H16.4102ZM13.3333 11.2501C13.6806 11.2501 13.9757 11.1285 14.2188 10.8855C14.4618 10.6424 14.5833 10.3473 14.5833 10.0001C14.5833 9.65284 14.4618 9.3577 14.2188 9.11464C13.9757 8.87159 13.6806 8.75006 13.3333 8.75006C12.9861 8.75006 12.691 8.87159 12.4479 9.11464C12.2049 9.3577 12.0833 9.65284 12.0833 10.0001C12.0833 10.3473 12.2049 10.6424 12.4479 10.8855C12.691 11.1285 12.9861 11.2501 13.3333 11.2501Z"
        fill="#4F545A" />

</svg>
