<svg viewBox="0 0 25 24">
    <path
        d="M6.52308 17.2923C7.37308 16.6615 8.29903 16.1635 9.30095 15.7981C10.3029 15.4327 11.3692 15.25 12.5 15.25C13.6307 15.25 14.6971 15.4327 15.699 15.7981C16.7009 16.1635 17.6269 16.6615 18.4769 17.2923C19.0987 16.609 19.5913 15.8179 19.9548 14.9192C20.3182 14.0205 20.5 13.0474 20.5 12C20.5 9.78331 19.7208 7.89581 18.1625 6.33748C16.6041 4.77914 14.7166 3.99998 12.5 3.99998C10.2833 3.99998 8.39581 4.77914 6.83748 6.33748C5.27914 7.89581 4.49998 9.78331 4.49998 12C4.49998 13.0474 4.68171 14.0205 5.04518 14.9192C5.40864 15.8179 5.90128 16.609 6.52308 17.2923ZM12.5003 12.75C11.5873 12.75 10.8173 12.4366 10.1904 11.8099C9.56346 11.1831 9.25 10.4133 9.25 9.50028C9.25 8.58726 9.56336 7.81729 10.1901 7.19038C10.8168 6.56346 11.5867 6.25 12.4997 6.25C13.4127 6.25 14.1827 6.56336 14.8096 7.19008C15.4365 7.81681 15.75 8.58668 15.75 9.49968C15.75 10.4127 15.4366 11.1827 14.8099 11.8096C14.1831 12.4365 13.4133 12.75 12.5003 12.75ZM12.5 21.5C11.1807 21.5 9.94325 21.2519 8.7875 20.7557C7.63173 20.2596 6.62628 19.5839 5.77115 18.7288C4.91603 17.8737 4.2404 16.8682 3.74425 15.7125C3.24808 14.5567 3 13.3192 3 12C3 10.6807 3.24808 9.44325 3.74425 8.2875C4.2404 7.13173 4.91603 6.12628 5.77115 5.27115C6.62628 4.41603 7.63173 3.7404 8.7875 3.24425C9.94325 2.74808 11.1807 2.5 12.5 2.5C13.8192 2.5 15.0567 2.74808 16.2125 3.24425C17.3682 3.7404 18.3737 4.41603 19.2288 5.27115C20.0839 6.12628 20.7596 7.13173 21.2557 8.2875C21.7519 9.44325 22 10.6807 22 12C22 13.3192 21.7519 14.5567 21.2557 15.7125C20.7596 16.8682 20.0839 17.8737 19.2288 18.7288C18.3737 19.5839 17.3682 20.2596 16.2125 20.7557C15.0567 21.2519 13.8192 21.5 12.5 21.5ZM12.5 20C13.4025 20 14.2727 19.8548 15.1105 19.5644C15.9484 19.274 16.6923 18.8679 17.3423 18.3461C16.6923 17.8436 15.958 17.4519 15.1394 17.1711C14.3208 16.8903 13.441 16.75 12.5 16.75C11.5589 16.75 10.6775 16.8887 9.85573 17.1663C9.03393 17.4439 8.30123 17.8371 7.65765 18.3461C8.30765 18.8679 9.05157 19.274 9.8894 19.5644C10.7272 19.8548 11.5974 20 12.5 20ZM12.5 11.25C12.9974 11.25 13.4134 11.0827 13.7481 10.7481C14.0827 10.4134 14.25 9.99741 14.25 9.49998C14.25 9.00254 14.0827 8.58651 13.7481 8.25188C13.4134 7.91726 12.9974 7.74995 12.5 7.74995C12.0025 7.74995 11.5865 7.91726 11.2519 8.25188C10.9173 8.58651 10.75 9.00254 10.75 9.49998C10.75 9.99741 10.9173 10.4134 11.2519 10.7481C11.5865 11.0827 12.0025 11.25 12.5 11.25Z" />

</svg>
