<svg xmlns="http://www.w3.org/2000/svg" height="24" viewBox="0 -960 960 960" width="24"><path d="m480-256.155 146.153-146.153L584-444.461l-74.001 74.001v-178.001h-59.998v178.001L376-444.461l-42.153 42.153L480-256.155ZM215.386-140.001q-29.923 0-52.654-22.731-22.731-22.731-22.731-52.654v-464.382q0-12.846 4.116-24.5 4.115-11.653 12.346-21.499l56.154-67.924q9.846-12.846 24.615-19.577 14.769-6.731 31.231-6.731h422.305q16.461 0 31.423 6.731 14.961 6.731 24.807 19.577l56.539 68.693q8.231 9.846 12.346 21.692 4.116 11.846 4.116 24.692v463.228q0 29.923-22.731 52.654-22.731 22.731-52.654 22.731H215.386Zm.229-563.844H744l-43.616-51.924q-1.923-1.923-4.423-3.077Q693.46-760 690.768-760h-421.92q-2.693 0-5.193 1.154-2.5 1.154-4.424 3.077l-43.616 51.924Z"/></svg>