<svg viewBox="0 0 25 24">
    <path
        d="M5.8077 20.5C5.30257 20.5 4.875 20.325 4.525 19.975C4.175 19.625 4 19.1974 4 18.6923V5.3077C4 4.80257 4.175 4.375 4.525 4.025C4.875 3.675 5.30257 3.5 5.8077 3.5H12.5096V4.99998H5.8077C5.73077 4.99998 5.66024 5.03203 5.59612 5.09613C5.53202 5.16024 5.49997 5.23077 5.49997 5.3077V18.6923C5.49997 18.7692 5.53202 18.8397 5.59612 18.9038C5.66024 18.9679 5.73077 19 5.8077 19H12.5096V20.5H5.8077ZM16.7308 16.2692L15.6923 15.1846L18.1269 12.75H9.59613V11.25H18.1269L15.6923 8.81538L16.7308 7.7308L21 12L16.7308 16.2692Z" />
</svg>
