<svg viewBox="0 0 88 88">
    <path
        d="M21.0836 62.3333V34.8333H26.5835V62.3333H21.0836ZM41.2501 62.3333V34.8333H46.75V62.3333H41.2501ZM10.1541 27.4999V22.2821L44 5.71167L77.846 22.2821V27.4999H10.1541ZM23.2128 22H64.7873L44 11.9167L23.2128 22ZM10.1541 75.1666V69.6667H52.6097C52.685 70.6445 52.7907 71.5764 52.927 72.4624C53.0633 73.3485 53.2561 74.2499 53.5052 75.1666H10.1541ZM61.4166 50.4521V34.8333H66.9165V47.7021L61.4166 50.4521ZM73.3334 86.5896C69.4223 85.6213 66.1881 83.3802 63.6308 79.8664C61.0736 76.3525 59.795 72.4497 59.795 68.1578V59.5129L73.3334 52.7437L86.8717 59.5128V68.1577C86.8717 72.4496 85.5931 76.3524 83.0359 79.8663C80.4787 83.3802 77.2445 85.6213 73.3334 86.5896ZM70.675 76.2243L82.6057 64.35L79.5314 61.2757L70.675 70.0193L67.1 66.4443L64.0257 69.575L70.675 76.2243Z" />
</svg>
