<svg xmlns="http://www.w3.org/2000/svg" height="24" viewBox="0 -960 960 960" width="24"><path d="M230.002-280v-300.001h59.999V-280h-59.999Zm219.999 0v-300.001h59.998V-280h-59.998Zm-339.23-380.001v-56.922L480-897.691l369.229 180.768v56.922H110.771Zm0 520V-200h463.153q1.231 16 3.461 30.499 2.231 14.5 6.308 29.5H110.771Zm559.228-269.613v-170.387h59.999v140.388l-59.999 29.999ZM800-15.386Q736-31.232 694.154-88.73q-41.845-57.5-41.845-127.73v-94.308L800-384.614l147.691 73.845v94.308q0 70.23-41.845 127.73Q864-31.231 800-15.386Zm-29-113.076L901.153-258l-33.538-33.538L771-196.153l-39-39L698.462-201 771-128.462Z"/></svg>