<svg xmlns="http://www.w3.org/2000/svg" height="24" viewBox="0 -960 960 960" width="24"><path d="M212.309-180.001q-30.308 0-51.308-21t-21-51.308v-455.382q0-30.308 21-51.308t51.308-21h535.382q30.308 0 51.308 21t21 51.308v455.382q0 30.308-21 51.308t-51.308 21H212.309Zm83.077-186.153H400q17.385 0 29.462-12.077 12.077-12.077 12.077-29.462v-27.691h-47.692V-420q0 2.308-1.923 4.231t-4.231 1.923h-80q-2.308 0-4.231-1.923T301.539-420v-120q0-2.308 1.923-4.231t4.231-1.923h80q2.308 0 4.231 1.923t1.923 4.231v16.154h47.692v-28.461q0-17.385-12.077-29.462-12.077-12.077-29.462-12.077H295.386q-17.385 0-29.462 12.077-12.077 12.077-12.077 29.462v144.614q0 17.385 12.077 29.462 12.077 12.077 29.462 12.077Zm264.614 0h104.614q17.385 0 29.462-12.077 12.077-12.077 12.077-29.462v-27.691h-47.692V-420q0 2.308-1.923 4.231t-4.231 1.923h-80q-2.308 0-4.231-1.923T566.153-420v-120q0-2.308 1.923-4.231t4.231-1.923h80q2.308 0 4.231 1.923t1.923 4.231v16.154h47.692v-28.461q0-17.385-12.077-29.462-12.077-12.077-29.462-12.077H560q-17.385 0-29.462 12.077-12.077 12.077-12.077 29.462v144.614q0 17.385 12.077 29.462 12.077 12.077 29.462 12.077Z"/></svg>