<svg viewBox="0 0 16 16">
    <path
        d="M3.53839 13C3.20163 13 2.91659 12.8833 2.68325 12.65C2.44992 12.4166 2.33325 12.1316 2.33325 11.7948V4.20513C2.33325 3.86838 2.44992 3.58333 2.68325 3.35C2.91659 3.11667 3.20163 3 3.53839 3H12.4614C12.7982 3 13.0832 3.11667 13.3166 3.35C13.5499 3.58333 13.6666 3.86838 13.6666 4.20513V11.7948C13.6666 12.1316 13.5499 12.4166 13.3166 12.65C13.0832 12.8833 12.7982 13 12.4614 13H3.53839ZM3.53839 12H12.4614C12.5127 12 12.5597 11.9786 12.6025 11.9359C12.6452 11.8931 12.6666 11.8461 12.6666 11.7948V4.20513C12.6666 4.15385 12.6452 4.10683 12.6025 4.06408C12.5597 4.02135 12.5127 3.99998 12.4614 3.99998H3.53839C3.4871 3.99998 3.44008 4.02135 3.39734 4.06408C3.3546 4.10683 3.33324 4.15385 3.33324 4.20513V11.7948C3.33324 11.8461 3.3546 11.8931 3.39734 11.9359C3.44008 11.9786 3.4871 12 3.53839 12ZM4.923 9.89742H6.66657C6.85974 9.89742 7.02341 9.83032 7.1576 9.69613C7.29179 9.56195 7.35889 9.39827 7.35889 9.2051V8.74358H6.56402V8.99998C6.56402 9.02563 6.55334 9.04913 6.53197 9.0705C6.5106 9.09187 6.4871 9.10255 6.46145 9.10255H5.12812C5.10247 9.10255 5.07897 9.09187 5.0576 9.0705C5.03624 9.04913 5.02555 9.02563 5.02555 8.99998V6.99998C5.02555 6.97434 5.03624 6.95083 5.0576 6.92947C5.07897 6.9081 5.10247 6.89742 5.12812 6.89742H6.46145C6.4871 6.89742 6.5106 6.9081 6.53197 6.92947C6.55334 6.95083 6.56402 6.97434 6.56402 6.99998V7.26922H7.35889V6.79487C7.35889 6.6017 7.29179 6.43802 7.1576 6.30383C7.02341 6.16965 6.85974 6.10255 6.66657 6.10255H4.923C4.72984 6.10255 4.56616 6.16965 4.43197 6.30383C4.29778 6.43802 4.23069 6.6017 4.23069 6.79487V9.2051C4.23069 9.39827 4.29778 9.56195 4.43197 9.69613C4.56616 9.83032 4.72984 9.89742 4.923 9.89742ZM9.33324 9.89742H11.0768C11.27 9.89742 11.4336 9.83032 11.5678 9.69613C11.702 9.56195 11.7691 9.39827 11.7691 9.2051V8.74358H10.9743V8.99998C10.9743 9.02563 10.9636 9.04913 10.9422 9.0705C10.9208 9.09187 10.8973 9.10255 10.8717 9.10255H9.53835C9.51271 9.10255 9.4892 9.09187 9.46784 9.0705C9.44647 9.04913 9.43579 9.02563 9.43579 8.99998V6.99998C9.43579 6.97434 9.44647 6.95083 9.46784 6.92947C9.4892 6.9081 9.51271 6.89742 9.53835 6.89742H10.8717C10.8973 6.89742 10.9208 6.9081 10.9422 6.92947C10.9636 6.95083 10.9743 6.97434 10.9743 6.99998V7.26922H11.7691V6.79487C11.7691 6.6017 11.702 6.43802 11.5678 6.30383C11.4336 6.16965 11.27 6.10255 11.0768 6.10255H9.33324C9.14007 6.10255 8.97639 6.16965 8.8422 6.30383C8.70801 6.43802 8.64092 6.6017 8.64092 6.79487V9.2051C8.64092 9.39827 8.70801 9.56195 8.8422 9.69613C8.97639 9.83032 9.14007 9.89742 9.33324 9.89742Z" />

</svg>
