<svg viewBox="0 0 20 20">
    <path
        d="M8.82605 11.7972L13.5416 7.0817L14.4021 7.94221L8.81721 13.5271L5.5817 10.2916L6.44221 9.43106L8.80837 11.7972L8.81721 11.8061L8.82605 11.7972ZM10.0013 17.904C8.90798 17.904 7.88047 17.6966 6.91866 17.2817C5.95659 16.8668 5.11986 16.3037 4.40834 15.5925C3.69681 14.8813 3.13347 14.0449 2.71833 13.0833C2.3033 12.1219 2.09575 11.0946 2.09575 10.0013C2.09575 8.90798 2.30321 7.88047 2.71806 6.91866C3.13302 5.95659 3.6961 5.11986 4.4073 4.40834C5.11851 3.69681 5.95488 3.13347 6.91652 2.71833C7.8779 2.3033 8.90519 2.09575 9.9985 2.09575C11.0918 2.09575 12.1193 2.30321 13.0811 2.71806C14.0432 3.13302 14.8799 3.6961 15.5915 4.4073C16.303 5.11851 16.8663 5.95488 17.2815 6.91652C17.6965 7.8779 17.904 8.90519 17.904 9.9985C17.904 11.0918 17.6966 12.1193 17.2817 13.0811C16.8668 14.0432 16.3037 14.8799 15.5925 15.5915C14.8813 16.303 14.0449 16.8663 13.0833 17.2815C12.1219 17.6965 11.0946 17.904 10.0013 17.904ZM9.9999 16.6791C11.8643 16.6791 13.4438 16.032 14.7379 14.7379C16.032 13.4438 16.6791 11.8643 16.6791 9.9999C16.6791 8.13554 16.032 6.55595 14.7379 5.26189C13.4438 3.96783 11.8643 3.32073 9.9999 3.32073C8.13554 3.32073 6.55595 3.96783 5.26189 5.26189C3.96783 6.55595 3.32073 8.13554 3.32073 9.9999C3.32073 11.8643 3.96783 13.4438 5.26189 14.7379C6.55595 16.032 8.13554 16.6791 9.9999 16.6791Z" />

</svg>
