<svg viewBox="0 0 20 20">
    <path
        d="M8.10352 15C7.88591 15.0009 7.67661 14.9089 7.52036 14.7437L3.58488 10.5775C3.50644 10.4939 3.44385 10.3943 3.40068 10.2844C3.35752 10.1745 3.33463 10.0563 3.33331 9.93674C3.33066 9.69522 3.41605 9.46244 3.57072 9.28961C3.72538 9.11678 3.93664 9.01806 4.15802 9.01516C4.37941 9.01226 4.59278 9.10543 4.7512 9.27416L8.10685 12.8251L15.248 5.25881C15.4067 5.09007 15.6203 4.99701 15.8418 5.00007C16.0633 5.00314 16.2747 5.1021 16.4294 5.27517C16.584 5.44824 16.6693 5.68125 16.6665 5.92294C16.6637 6.16463 16.573 6.3952 16.4144 6.56393L8.68668 14.7437C8.53044 14.9089 8.32113 15.0009 8.10352 15Z" />
</svg>
