<svg viewBox="0 0 20 20">
    <path
        d="M11.1887 10.0103L15.5995 5.59949C15.6791 5.52262 15.7426 5.43066 15.7862 5.32899C15.8299 5.22732 15.8529 5.11797 15.8539 5.00732C15.8548 4.89667 15.8337 4.78694 15.7918 4.68453C15.7499 4.58211 15.6881 4.48907 15.6098 4.41083C15.5316 4.33258 15.4385 4.2707 15.3361 4.2288C15.2337 4.1869 15.124 4.16582 15.0133 4.16678C14.9027 4.16774 14.7933 4.19073 14.6917 4.2344C14.59 4.27808 14.498 4.34156 14.4212 4.42116L10.0103 8.83199L5.59949 4.42116C5.44232 4.26936 5.23182 4.18536 5.01332 4.18726C4.79482 4.18916 4.58581 4.2768 4.43131 4.43131C4.2768 4.58581 4.18916 4.79482 4.18726 5.01332C4.18536 5.23182 4.26936 5.44232 4.42116 5.59949L8.83199 10.0103L4.42116 14.4212C4.34156 14.498 4.27808 14.59 4.2344 14.6917C4.19073 14.7933 4.16774 14.9027 4.16678 15.0133C4.16582 15.124 4.1869 15.2337 4.2288 15.3361C4.2707 15.4385 4.33258 15.5316 4.41083 15.6098C4.48907 15.6881 4.58211 15.7499 4.68453 15.7918C4.78694 15.8337 4.89667 15.8548 5.00732 15.8539C5.11797 15.8529 5.22732 15.8299 5.32899 15.7862C5.43066 15.7426 5.52262 15.6791 5.59949 15.5995L10.0103 11.1887L14.4212 15.5995C14.5783 15.7513 14.7888 15.8353 15.0073 15.8334C15.2258 15.8315 15.4348 15.7438 15.5893 15.5893C15.7438 15.4348 15.8315 15.2258 15.8334 15.0073C15.8353 14.7888 15.7513 14.5783 15.5995 14.4212L11.1887 10.0103Z" />
</svg>
