<svg viewBox="0 0 88 88">
    <path
        d="M32.8308 41.6309L40.961 33.4443L34.6288 27.0558L30.4897 31.1949L26.6257 27.3309L30.7084 23.1918L25.0672 17.5506L16.8807 25.7372L32.8308 41.6309ZM62.2275 71.0841L70.4141 62.8975L64.7729 57.2564L60.6338 61.3391L56.7698 57.475L60.8525 53.3359L54.4992 47.0391L46.3691 55.1693L62.2275 71.0841ZM26.407 75.1666H12.8334V61.593L28.9104 45.5161L9.16675 25.7372L25.0672 9.83679L44.9377 29.672L60.0488 14.5046C60.6176 13.9358 61.2428 13.5151 61.9244 13.2425C62.606 12.9698 63.3181 12.8335 64.0609 12.8335C64.8036 12.8335 65.5157 12.9698 66.1974 13.2425C66.8789 13.5151 67.5041 13.9358 68.0729 14.5046L73.4954 20.0893C74.0642 20.6581 74.4791 21.2833 74.7399 21.9648C75.0008 22.6465 75.1313 23.3587 75.1313 24.1014C75.1313 24.8441 75.0008 25.541 74.7399 26.1921C74.4791 26.8431 74.0642 27.453 73.4954 28.0218L58.4549 43.154L78.1632 62.9328L62.2628 78.8333L42.4839 59.0897L26.407 75.1666ZM18.3333 69.6667H24.0661L60.0347 33.7546L54.2455 27.9653L18.3333 63.934V69.6667ZM57.1859 30.8705L54.2455 27.9653L60.0347 33.7546L57.1859 30.8705Z" />
</svg>
