<svg xmlns="http://www.w3.org/2000/svg" height="24" viewBox="0 -960 960 960" width="24"><path d="M360-317.694q-38.538 0-65.423-26.884-26.884-26.885-26.884-65.423t26.884-65.422q26.885-26.885 65.423-26.885t65.423 26.885q26.884 26.884 26.884 65.422t-26.884 65.423Q398.538-317.694 360-317.694ZM212.309-100.001q-30.308 0-51.308-21t-21-51.308v-535.382q0-30.308 21-51.308t51.308-21h55.385v-84.615h61.537v84.615h303.076v-84.615h59.999v84.615h55.385q30.308 0 51.308 21t21 51.308v535.382q0 30.308-21 51.308t-51.308 21H212.309Zm0-59.999h535.382q4.616 0 8.463-3.846 3.846-3.847 3.846-8.463v-375.382H200v375.382q0 4.616 3.846 8.463 3.847 3.846 8.463 3.846Z"/></svg>