<svg viewBox="0 0 20 20">
    <path
        d="M3.58967 16.25C3.16872 16.25 2.81242 16.1041 2.52075 15.8125C2.22909 15.5208 2.08325 15.1645 2.08325 14.7435V5.25642C2.08325 4.83547 2.22909 4.47917 2.52075 4.1875C2.81242 3.89583 3.16872 3.75 3.58967 3.75H16.4101C16.8311 3.75 17.1874 3.89583 17.479 4.1875C17.7707 4.47917 17.9165 4.83547 17.9165 5.25642V14.7435C17.9165 15.1645 17.7707 15.5208 17.479 15.8125C17.1874 16.1041 16.8311 16.25 16.4101 16.25H3.58967ZM9.9999 10.4647L3.33323 6.20188V14.7435C3.33323 14.8183 3.35727 14.8798 3.40536 14.9279C3.45344 14.9759 3.51488 15 3.58967 15H16.4101C16.4849 15 16.5464 14.9759 16.5944 14.9279C16.6425 14.8798 16.6666 14.8183 16.6666 14.7435V6.20188L9.9999 10.4647ZM9.9999 9.16665L16.5384 4.99998H3.46144L9.9999 9.16665ZM3.33323 6.20188V4.99998V14.7435C3.33323 14.8183 3.35727 14.8798 3.40536 14.9279C3.45344 14.9759 3.51488 15 3.58967 15H3.33323V6.20188Z" />
</svg>
