<svg viewBox="0 0 20 21">
    <path
        d="M14.9579 6.74137L14.9805 6.77229V6.734V4.2625H16.2054V9.3336H11.1343V8.10865H14.4135H14.4345L14.4245 8.09016C13.9843 7.28373 13.3737 6.64826 12.593 6.18394C11.8121 5.71963 10.9584 5.48748 10.0321 5.48748C8.63992 5.48748 7.45617 5.97488 6.48158 6.94947C5.50699 7.92407 5.01958 9.10781 5.01958 10.5C5.01958 11.8921 5.50699 13.0759 6.48158 14.0505C7.45617 15.0251 8.63992 15.5125 10.0321 15.5125C11.1041 15.5125 12.0719 15.2061 12.9352 14.5935C13.796 13.9826 14.4008 13.1777 14.7493 12.1791H16.0412C15.6624 13.5293 14.9205 14.6256 13.8153 15.4684C12.7059 16.3145 11.445 16.7375 10.0321 16.7375C8.29054 16.7375 6.81588 16.1334 5.60734 14.9251C4.3988 13.7168 3.7946 12.2424 3.7946 10.5013C3.7946 8.76007 4.3988 7.28529 5.60734 6.07615C6.81588 4.867 8.29054 4.2625 10.0321 4.2625C11.0045 4.2625 11.9246 4.47867 12.7925 4.91104C13.6604 5.34337 14.3821 5.95344 14.9579 6.74137Z" />

</svg>
