<svg viewBox="0 0 16 16">
    <path
        d="M5.87431 14.5769L4.68457 12.5718L2.42561 12.0769L2.64612 9.75126L1.11536 8L2.64612 6.24873L2.42561 3.9231L4.68457 3.42823L5.87431 1.4231L7.99994 2.32566L10.1256 1.4231L11.3153 3.42823L13.5743 3.9231L13.3538 6.24873L14.8845 8L13.3538 9.75126L13.5743 12.0769L11.3153 12.5718L10.1256 14.5769L7.99994 13.6743L5.87431 14.5769V14.5769ZM6.29994 13.3L7.99994 12.5795L9.72046 13.3L10.6666 11.7L12.4999 11.2795L12.3333 9.4L13.5666 8L12.3333 6.57948L12.4999 4.7L10.6666 4.3L9.69994 2.7L7.99994 3.42051L6.27942 2.7L5.33327 4.3L3.49994 4.7L3.66661 6.57948L2.43327 8L3.66661 9.4L3.49994 11.3L5.33327 11.7L6.29994 13.3ZM7.29994 10.1359L10.8358 6.6L10.1333 5.87693L7.29994 8.71026L5.86661 7.29745L5.16406 8L7.29994 10.1359Z" />
</svg>
