<svg width="48" height="49" viewBox="0 0 48 49" fill="none" xmlns="http://www.w3.org/2000/svg">
<rect y="0.0328979" width="48" height="48" fill="#D9D9D9"/>
<path d="M20.5465 3.01227C20.0995 3.06273 19.3458 3.22787 18.9601 3.35632C18.088 3.6499 17.5051 3.99854 16.931 4.57195C16.5016 5.00316 16.2737 5.32427 15.6996 6.2922C14.8976 7.65004 14.6785 7.87482 12.943 9.13175C11.7028 10.0354 11.1156 10.5446 10.5415 11.2098C9.91479 11.9392 9.3889 12.8979 9.15225 13.742C9.00763 14.2512 8.95504 15.1274 9.04269 15.6778C9.1654 16.499 9.55105 17.366 10.2698 18.4669C11.4749 20.3202 11.6853 20.6551 11.9088 21.1276C12.3821 22.1322 12.4829 22.6643 12.5442 24.5681C12.6012 26.2654 12.7152 26.8525 13.1271 27.6186C13.7669 28.8067 15.1518 29.8297 16.6681 30.2242C16.804 30.2609 16.8215 30.2793 16.8127 30.3985C16.8083 30.4719 16.5147 33.6968 16.1597 37.5593C15.8048 41.4264 15.5243 44.6008 15.5374 44.6146C15.5506 44.6284 17.4526 43.7017 19.7665 42.5503L23.9692 40.4631L28.4086 42.7384C30.8452 43.9907 32.848 45.0091 32.8568 44.9999C32.8655 44.9908 32.4141 41.8209 31.8488 37.963C31.2835 34.1005 30.8277 30.9031 30.8365 30.8573C30.8408 30.7884 30.911 30.7517 31.152 30.6875C31.5946 30.5728 31.862 30.4536 32.5544 30.0636C33.3651 29.6049 33.834 29.2746 34.2416 28.8709C35.14 27.9856 35.5914 26.8709 36.0165 24.4625C36.3408 22.6414 36.5643 22.1184 37.5503 20.912C38.3173 19.9716 38.6547 19.4119 38.8914 18.6825C39.0842 18.0816 39.1631 17.4761 39.1368 16.7971C39.1105 16.109 39.0097 15.6687 38.7336 15.0631C38.4093 14.3429 38.1069 13.9347 36.9368 12.6319C36.5993 12.2557 36.2663 11.8612 36.1962 11.7557C36.0033 11.4621 35.9157 11.1181 35.7974 10.1868C35.6002 8.67301 35.4906 8.21428 35.1663 7.53077C34.281 5.69126 32.0942 4.7371 29.399 5.02151C27.7863 5.19124 27.554 5.205 27.1684 5.14996C26.6951 5.08573 26.1911 4.87013 24.7098 4.09946C23.5616 3.50311 22.9306 3.24622 22.2557 3.09943C21.9139 3.02603 20.8971 2.97557 20.5465 3.01227ZM22.1242 6.12247C22.317 6.19128 22.9174 6.48028 23.4609 6.76469C25.6477 7.91611 26.3182 8.1363 27.6242 8.13171C28.0186 8.13171 28.6584 8.09043 29.158 8.03079C30.1309 7.91611 30.9153 7.92528 31.393 8.05373C31.8488 8.17758 32.2827 8.41612 32.4799 8.65008C32.7165 8.9299 32.8173 9.28771 32.9488 10.3107C33.2468 12.641 33.4572 13.1135 34.9428 14.7512C36.2137 16.1503 36.3934 16.499 36.297 17.3155C36.2268 17.8752 36.0866 18.1229 35.14 19.2926C34.6974 19.8431 34.4257 20.256 34.1408 20.834C33.7026 21.701 33.4966 22.4166 33.1723 24.2011C32.9093 25.6323 32.6639 26.3388 32.309 26.7011C32.0898 26.9259 31.6297 27.2241 30.9942 27.5636C30.6436 27.7516 30.4683 27.8159 30.2405 27.848C29.7102 27.9168 28.9958 27.8067 27.6899 27.4626C25.3278 26.8434 24.2322 26.6828 22.8035 26.7516C22.0541 26.7883 21.4362 26.8755 20.0645 27.1369C18.6709 27.403 18.145 27.4626 17.6761 27.3938C16.7032 27.2562 15.7653 26.6415 15.5331 25.9901C15.4235 25.6828 15.3578 24.9304 15.3534 23.9671C15.3534 22.412 15.0948 21.201 14.4988 19.9165C14.1657 19.2055 13.8239 18.6275 13.0307 17.4348C12.1542 16.1228 11.8956 15.632 11.8255 15.1365C11.751 14.6182 12.1279 13.7833 12.7502 13.0768C13.0833 12.7053 13.6355 12.2465 14.6084 11.5401C16.6418 10.0676 17.1808 9.48956 18.2195 7.67298C18.6007 7.00782 18.8725 6.67294 19.1792 6.48028C19.9593 5.98943 21.2872 5.82888 22.1242 6.12247ZM22.5756 33.9583C22.5844 37.2841 22.5712 38.1694 22.5318 38.2061C22.4441 38.2749 18.5832 40.1878 18.5219 40.1878C18.4868 40.1878 18.4737 40.142 18.4868 40.0594C18.5 39.9906 18.7059 37.7657 18.9513 35.1189C19.1924 32.4674 19.3983 30.2976 19.4027 30.293C19.4509 30.238 22.4091 29.7242 22.5186 29.7471C22.5493 29.7563 22.5668 31.2059 22.5756 33.9583ZM26.7915 30.2838C27.5014 30.4627 28.1106 30.6233 28.1457 30.6417C28.1939 30.6692 28.3867 31.8894 28.9038 35.4216C29.2851 38.0318 29.5919 40.2108 29.5875 40.2658C29.5743 40.353 29.3684 40.2567 27.3612 39.2291L25.1481 38.0914L25.1349 33.995L25.1262 29.8985L25.3102 29.9306C25.4154 29.949 26.0815 30.1095 26.7915 30.2838Z" fill="black"/>
<path d="M23.601 10.7832C22.1373 10.9804 20.8357 11.6456 19.8014 12.7328C18.8636 13.7144 18.2588 14.9026 17.9959 16.2742C17.8819 16.8889 17.8907 18.2192 18.0178 18.8431C18.307 20.2422 18.9688 21.4762 19.9373 22.4258C20.8488 23.3203 21.9795 23.9166 23.2197 24.1598C23.5309 24.224 23.8596 24.2469 24.3591 24.2469C24.8587 24.2469 25.1874 24.224 25.4986 24.1598C28.0009 23.6735 29.9774 21.7514 30.6041 19.2009C31.371 16.0953 29.9424 12.8429 27.2077 11.4437C26.6292 11.1501 26.2217 11.0033 25.6081 10.8749C25.0822 10.7602 24.105 10.7189 23.601 10.7832ZM24.885 12.9438C26.3269 13.1227 27.6241 14.0768 28.2726 15.4393C28.6057 16.1457 28.7372 16.7191 28.7372 17.5036C28.7372 17.8063 28.7109 18.1779 28.6802 18.3293C28.3121 20.178 27.0675 21.5404 25.3452 21.99C24.7886 22.1322 23.8552 22.123 23.2855 21.9624C22.5054 21.7514 21.8787 21.3798 21.3002 20.7881C20.713 20.1917 20.3098 19.4761 20.0951 18.6275C20.003 18.2513 19.9855 18.0953 19.9855 17.5036C19.9855 16.9118 20.003 16.7558 20.0951 16.3797C20.564 14.5356 22.0321 13.1777 23.8113 12.9438C24.2277 12.8887 24.4424 12.8887 24.885 12.9438Z" fill="black"/>
</svg>
